# 3ds Max Wavefront OBJ Exporter v0.97b - (c)2007 guruware
# File Created: 28.05.2015 23:33:51

mtllib geosphere.mtl

#
# object GeoSphere001
#

v  12.9458 45.5711 -0.0000
v  0.0000 47.3743 -0.0000
v  4.0005 45.5711 -12.3122
v  24.9061 40.2990 -0.0000
v  17.1402 42.3729 -12.4531
v  7.6964 40.2990 -23.6871
v  34.9705 31.9591 -0.0000
v  29.2709 35.0758 -12.5389
v  20.9704 35.0758 -23.9636
v  10.8065 31.9591 -33.2590
v  42.3729 21.1864 -0.0000
v  38.9710 23.9582 -12.3122
v  32.6026 24.9061 -23.6871
v  23.7523 23.9582 -33.2590
v  13.0939 21.1864 -40.2990
v  -10.4734 45.5711 -7.6094
v  -6.5470 42.3729 -20.1495
v  -20.1495 40.2990 -14.6395
v  -2.8800 35.0758 -31.7130
v  -16.3105 35.0758 -27.3492
v  -28.2918 31.9591 -20.5552
v  0.3331 23.9582 -40.8683
v  -12.4531 24.9061 -38.3266
v  -24.2913 23.9582 -32.8674
v  -34.2804 21.1864 -24.9061
v  -10.4734 45.5711 7.6094
v  -21.1864 42.3729 0.0000
v  -20.1495 40.2990 14.6395
v  -31.0508 35.0758 -7.0609
v  -31.0508 35.0758 7.0609
v  -28.2918 31.9591 20.5552
v  -38.7651 23.9582 -12.9458
v  -40.2990 24.9061 0.0000
v  -38.7651 23.9582 12.9458
v  -34.2804 21.1864 24.9061
v  4.0005 45.5711 12.3122
v  -6.5470 42.3729 20.1495
v  7.6964 40.2990 23.6871
v  -16.3105 35.0758 27.3492
v  -2.8800 35.0758 31.7130
v  10.8065 31.9591 33.2590
v  -24.2913 23.9582 32.8674
v  -12.4531 24.9061 38.3266
v  0.3331 23.9582 40.8683
v  13.0939 21.1864 40.2990
v  17.1402 42.3729 12.4531
v  20.9704 35.0758 23.9636
v  29.2709 35.0758 12.5389
v  23.7523 23.9582 33.2590
v  32.6026 24.9061 23.6871
v  38.9710 23.9582 12.3122
v  45.4439 11.0124 7.6094
v  45.4439 11.0124 -7.6094
v  45.0556 0.0000 14.6395
v  47.3743 0.0000 -0.0000
v  45.0556 0.0000 -14.6395
v  41.2376 -11.0124 20.5552
v  45.2591 -12.0863 7.0609
v  45.2591 -12.0863 -7.0609
v  41.2376 -11.0124 -20.5552
v  34.2804 -21.1864 24.9061
v  38.7651 -23.9582 12.9458
v  40.2990 -24.9061 0.0000
v  38.7651 -23.9582 -12.9458
v  34.2804 -21.1864 -24.9061
v  21.2799 11.0124 -40.8683
v  6.8060 11.0124 -45.5711
v  27.8459 0.0000 -38.3266
v  14.6395 0.0000 -45.0556
v  -0.0000 0.0000 -47.3743
v  32.2922 -11.0124 -32.8674
v  20.7011 -12.0863 -40.8621
v  7.2706 -12.0863 -45.2259
v  -6.8060 -11.0124 -45.5711
v  24.2913 -23.9582 -32.8674
v  12.4531 -24.9061 -38.3266
v  -0.3331 -23.9582 -40.8683
v  -13.0939 -21.1864 -40.2990
v  -32.2922 11.0124 -32.8674
v  -41.2376 11.0124 -20.5552
v  -27.8459 0.0000 -38.3266
v  -38.3266 0.0000 -27.8459
v  -45.0556 0.0000 -14.6395
v  -21.2799 -11.0124 -40.8683
v  -32.4651 -12.0863 -32.3150
v  -40.7657 -12.0863 -20.8903
v  -45.4439 -11.0124 -7.6094
v  -23.7523 -23.9582 -33.2589
v  -32.6026 -24.9061 -23.6871
v  -38.9710 -23.9582 -12.3122
v  -42.3729 -21.1864 0.0000
v  -41.2376 11.0124 20.5552
v  -32.2922 11.0124 32.8674
v  -45.0556 0.0000 14.6395
v  -38.3266 0.0000 27.8459
v  -27.8459 0.0000 38.3266
v  -45.4439 -11.0124 7.6094
v  -40.7657 -12.0863 20.8903
v  -32.4651 -12.0863 32.3150
v  -21.2799 -11.0124 40.8683
v  -38.9710 -23.9582 12.3122
v  -32.6026 -24.9061 23.6872
v  -23.7523 -23.9582 33.2590
v  -13.0939 -21.1864 40.2990
v  6.8060 11.0124 45.5712
v  21.2799 11.0124 40.8683
v  0.0000 0.0000 47.3743
v  14.6395 0.0000 45.0556
v  27.8459 0.0000 38.3266
v  -6.8060 -11.0124 45.5712
v  7.2706 -12.0863 45.2259
v  20.7011 -12.0863 40.8621
v  32.2922 -11.0124 32.8674
v  -0.3331 -23.9582 40.8683
v  12.4531 -24.9061 38.3266
v  24.2913 -23.9582 32.8674
v  38.3266 0.0000 -27.8459
v  32.4651 12.0863 -32.3150
v  40.7657 12.0863 -20.8903
v  -14.6395 0.0000 -45.0556
v  -20.7011 12.0863 -40.8621
v  -7.2706 12.0863 -45.2259
v  -47.3743 0.0000 0.0000
v  -45.2591 12.0863 7.0609
v  -45.2591 12.0863 -7.0609
v  -14.6395 0.0000 45.0556
v  -7.2706 12.0863 45.2259
v  -20.7011 12.0863 40.8621
v  38.3266 0.0000 27.8459
v  40.7657 12.0863 20.8903
v  32.4651 12.0863 32.3150
v  -4.0005 -45.5711 -12.3122
v  0.0000 -47.3743 -0.0000
v  10.4734 -45.5711 -7.6094
v  -7.6964 -40.2990 -23.6871
v  6.5470 -42.3729 -20.1495
v  20.1495 -40.2990 -14.6395
v  -10.8065 -31.9591 -33.2590
v  2.8800 -35.0758 -31.7130
v  16.3105 -35.0758 -27.3492
v  28.2918 -31.9591 -20.5552
v  -12.9458 -45.5711 0.0000
v  -24.9061 -40.2990 0.0000
v  -17.1402 -42.3729 -12.4531
v  -34.9705 -31.9591 0.0000
v  -29.2709 -35.0758 -12.5389
v  -20.9704 -35.0758 -23.9636
v  -4.0005 -45.5711 12.3122
v  -7.6964 -40.2990 23.6871
v  -17.1402 -42.3729 12.4531
v  -10.8065 -31.9591 33.2590
v  -20.9704 -35.0758 23.9636
v  -29.2709 -35.0758 12.5389
v  10.4734 -45.5711 7.6094
v  20.1495 -40.2990 14.6395
v  6.5470 -42.3729 20.1495
v  28.2918 -31.9591 20.5552
v  16.3105 -35.0758 27.3492
v  2.8800 -35.0758 31.7130
v  21.1864 -42.3729 -0.0000
v  31.0508 -35.0758 -7.0609
v  31.0508 -35.0758 7.0609
# 162 vertices

vn -0.2713 -0.9625 0.0000
vn 0.0000 -1.0000 0.0000
vn -0.0838 -0.9625 0.2580
vn -0.5250 -0.8511 0.0000
vn -0.3638 -0.8932 0.2643
vn -0.1622 -0.8511 0.4993
vn -0.7394 -0.6732 0.0000
vn -0.6197 -0.7376 0.2680
vn -0.4464 -0.7376 0.5066
vn -0.2285 -0.6732 0.7032
vn -0.8944 -0.4472 0.0000
vn -0.8219 -0.5060 0.2615
vn -0.6882 -0.5257 0.5000
vn -0.5027 -0.5060 0.7009
vn -0.2764 -0.4472 0.8507
vn 0.2195 -0.9625 0.1595
vn 0.1390 -0.8932 0.4277
vn 0.4248 -0.8511 0.3086
vn 0.0634 -0.7376 0.6722
vn 0.3438 -0.7376 0.5811
vn 0.5982 -0.6732 0.4346
vn -0.0053 -0.5060 0.8625
vn 0.2629 -0.5257 0.8090
vn 0.5112 -0.5060 0.6947
vn 0.7236 -0.4472 0.5257
vn 0.2195 -0.9625 -0.1595
vn 0.4497 -0.8932 -0.0000
vn 0.4248 -0.8511 -0.3086
vn 0.6589 -0.7376 0.1474
vn 0.6589 -0.7376 -0.1474
vn 0.5982 -0.6732 -0.4346
vn 0.8187 -0.5060 0.2715
vn 0.8507 -0.5257 -0.0000
vn 0.8187 -0.5060 -0.2715
vn 0.7236 -0.4472 -0.5257
vn -0.0838 -0.9625 -0.2580
vn 0.1390 -0.8932 -0.4277
vn -0.1622 -0.8511 -0.4993
vn 0.3438 -0.7376 -0.5811
vn 0.0634 -0.7376 -0.6722
vn -0.2285 -0.6732 -0.7032
vn 0.5112 -0.5060 -0.6947
vn 0.2629 -0.5257 -0.8090
vn -0.0053 -0.5060 -0.8625
vn -0.2764 -0.4472 -0.8507
vn -0.3638 -0.8932 -0.2643
vn -0.4464 -0.7376 -0.5066
vn -0.6197 -0.7376 -0.2680
vn -0.5027 -0.5060 -0.7009
vn -0.6882 -0.5257 -0.5000
vn -0.8219 -0.5060 -0.2615
vn -0.9584 -0.2353 -0.1615
vn -0.9584 -0.2353 0.1615
vn -0.9511 -0.0000 -0.3090
vn -1.0000 0.0027 -0.0000
vn -0.9511 -0.0000 0.3090
vn -0.8703 0.2353 -0.4327
vn -0.9544 0.2595 -0.1474
vn -0.9544 0.2595 0.1474
vn -0.8703 0.2353 0.4327
vn -0.7236 0.4472 -0.5257
vn -0.8187 0.5060 -0.2715
vn -0.8507 0.5257 -0.0000
vn -0.8187 0.5060 0.2715
vn -0.7236 0.4472 0.5257
vn -0.4497 -0.2353 0.8616
vn -0.1426 -0.2353 0.9614
vn -0.5878 0.0000 0.8090
vn -0.3090 0.0027 0.9511
vn -0.0000 0.0000 1.0000
vn -0.6805 0.2353 0.6940
vn -0.4351 0.2595 0.8622
vn -0.1547 0.2595 0.9533
vn 0.1426 0.2353 0.9614
vn -0.5112 0.5060 0.6947
vn -0.2629 0.5257 0.8090
vn 0.0053 0.5060 0.8625
vn 0.2764 0.4472 0.8507
vn 0.6805 -0.2353 0.6940
vn 0.8703 -0.2353 0.4327
vn 0.5878 0.0000 0.8090
vn 0.8090 0.0027 0.5878
vn 0.9511 0.0000 0.3090
vn 0.4497 0.2353 0.8616
vn 0.6855 0.2595 0.6803
vn 0.8588 0.2595 0.4417
vn 0.9584 0.2353 0.1615
vn 0.5027 0.5060 0.7009
vn 0.6882 0.5257 0.5000
vn 0.8219 0.5060 0.2615
vn 0.8944 0.4472 -0.0000
vn 0.8703 -0.2353 -0.4327
vn 0.6805 -0.2353 -0.6940
vn 0.9511 0.0000 -0.3090
vn 0.8090 0.0027 -0.5878
vn 0.5878 0.0000 -0.8090
vn 0.9584 0.2353 -0.1615
vn 0.8588 0.2595 -0.4417
vn 0.6855 0.2595 -0.6803
vn 0.4497 0.2353 -0.8616
vn 0.8219 0.5060 -0.2615
vn 0.6882 0.5257 -0.5000
vn 0.5027 0.5060 -0.7009
vn 0.2764 0.4472 -0.8507
vn -0.1426 -0.2353 -0.9614
vn -0.4497 -0.2353 -0.8616
vn -0.0000 0.0000 -1.0000
vn -0.3090 0.0027 -0.9511
vn -0.5878 0.0000 -0.8090
vn 0.1426 0.2353 -0.9614
vn -0.1547 0.2595 -0.9533
vn -0.4351 0.2595 -0.8622
vn -0.6805 0.2353 -0.6940
vn 0.0053 0.5060 -0.8625
vn -0.2629 0.5257 -0.8090
vn -0.5112 0.5060 -0.6947
vn -0.8090 -0.0027 0.5878
vn -0.6855 -0.2595 0.6803
vn -0.8588 -0.2595 0.4417
vn 0.3090 -0.0027 0.9511
vn 0.4351 -0.2595 0.8622
vn 0.1547 -0.2595 0.9533
vn 1.0000 -0.0027 -0.0000
vn 0.9544 -0.2595 -0.1474
vn 0.9544 -0.2595 0.1474
vn 0.3090 -0.0027 -0.9511
vn 0.1547 -0.2595 -0.9533
vn 0.4351 -0.2595 -0.8622
vn -0.8090 -0.0027 -0.5878
vn -0.8588 -0.2595 -0.4417
vn -0.6855 -0.2595 -0.6803
vn 0.0838 0.9625 0.2580
vn 0.0000 1.0000 -0.0000
vn -0.2195 0.9625 0.1595
vn 0.1622 0.8511 0.4993
vn -0.1390 0.8932 0.4277
vn -0.4248 0.8511 0.3086
vn 0.2285 0.6732 0.7032
vn -0.0634 0.7376 0.6722
vn -0.3438 0.7376 0.5811
vn -0.5982 0.6732 0.4346
vn 0.2713 0.9625 -0.0000
vn 0.5250 0.8511 -0.0000
vn 0.3638 0.8932 0.2643
vn 0.7394 0.6732 0.0000
vn 0.6197 0.7376 0.2680
vn 0.4464 0.7376 0.5066
vn 0.0838 0.9625 -0.2580
vn 0.1622 0.8511 -0.4993
vn 0.3638 0.8932 -0.2643
vn 0.2285 0.6732 -0.7032
vn 0.4464 0.7376 -0.5066
vn 0.6197 0.7376 -0.2680
vn -0.2195 0.9625 -0.1595
vn -0.4248 0.8511 -0.3086
vn -0.1390 0.8932 -0.4277
vn -0.5982 0.6732 -0.4346
vn -0.3438 0.7376 -0.5811
vn -0.0634 0.7376 -0.6722
vn -0.4497 0.8932 -0.0000
vn -0.6589 0.7376 0.1474
vn -0.6589 0.7376 -0.1474
# 162 vertex normals

vt 0.5000 0.9119 47.3743
vt 0.6000 0.9999 47.3743
vt 0.7000 0.9119 47.3743
vt 0.5000 0.8238 47.3743
vt 0.6000 0.8524 47.3743
vt 0.7000 0.8238 47.3743
vt 0.5000 0.7357 47.3743
vt 0.5644 0.7654 47.3743
vt 0.6356 0.7654 47.3743
vt 0.7000 0.7357 47.3743
vt 0.5000 0.6476 47.3743
vt 0.5487 0.6688 47.3743
vt 0.6000 0.6762 47.3743
vt 0.6513 0.6688 47.3743
vt 0.7000 0.6476 47.3743
vt 0.8000 0.9999 47.3743
vt 0.9000 0.9119 47.3743
vt 0.8000 0.8524 47.3743
vt 0.9000 0.8238 47.3743
vt 0.7644 0.7654 47.3743
vt 0.8356 0.7654 47.3743
vt 0.9000 0.7357 47.3743
vt 0.7487 0.6688 47.3743
vt 0.8000 0.6762 47.3743
vt 0.8513 0.6688 47.3743
vt 0.9000 0.6476 47.3743
vt -0.1000 0.9119 47.3743
vt 0.0000 0.9999 47.3743
vt 0.1000 0.9119 47.3743
vt -0.1000 0.8238 47.3743
vt 0.0000 0.8524 47.3743
vt 0.1000 0.8238 47.3743
vt 0.9644 0.7654 47.3743
vt -0.0356 0.7654 47.3743
vt 0.0356 0.7654 47.3743
vt 0.1000 0.7357 47.3743
vt 0.9487 0.6688 47.3743
vt -0.0513 0.6688 47.3743
vt 0.0000 0.6762 47.3743
vt 0.0513 0.6688 47.3743
vt 0.1000 0.6476 47.3743
vt 0.2000 0.9999 47.3743
vt 0.3000 0.9119 47.3743
vt 0.2000 0.8524 47.3743
vt 0.3000 0.8238 47.3743
vt 0.1644 0.7654 47.3743
vt 0.2356 0.7654 47.3743
vt 0.3000 0.7357 47.3743
vt 0.1487 0.6688 47.3743
vt 0.2000 0.6762 47.3743
vt 0.2513 0.6688 47.3743
vt 0.3000 0.6476 47.3743
vt 0.4000 0.9999 47.3743
vt 0.4000 0.8524 47.3743
vt 0.3644 0.7654 47.3743
vt 0.4356 0.7654 47.3743
vt 0.3487 0.6688 47.3743
vt 0.4000 0.6762 47.3743
vt 0.4513 0.6688 47.3743
vt 0.4736 0.5747 47.3743
vt 0.5264 0.5747 47.3743
vt 0.4500 0.5000 47.3743
vt 0.5000 0.5000 47.3743
vt 0.5500 0.5000 47.3743
vt 0.4264 0.4253 47.3743
vt 0.4754 0.4179 47.3743
vt 0.5246 0.4179 47.3743
vt 0.5736 0.4253 47.3743
vt 0.4000 0.3524 47.3743
vt 0.4487 0.3312 47.3743
vt 0.5000 0.3238 47.3743
vt 0.5513 0.3312 47.3743
vt 0.6000 0.3524 47.3743
vt 0.6736 0.5747 47.3743
vt 0.7264 0.5747 47.3743
vt 0.6500 0.5000 47.3743
vt 0.7000 0.5000 47.3743
vt 0.7500 0.5000 47.3743
vt 0.6264 0.4253 47.3743
vt 0.6754 0.4179 47.3743
vt 0.7246 0.4179 47.3743
vt 0.7736 0.4253 47.3743
vt 0.6487 0.3312 47.3743
vt 0.7000 0.3238 47.3743
vt 0.7513 0.3312 47.3743
vt 0.8000 0.3524 47.3743
vt 0.8736 0.5747 47.3743
vt 0.9264 0.5747 47.3743
vt 0.8500 0.5000 47.3743
vt 0.9000 0.5000 47.3743
vt 0.9500 0.5000 47.3743
vt 0.8264 0.4253 47.3743
vt 0.8754 0.4179 47.3743
vt 0.9246 0.4179 47.3743
vt 0.9736 0.4253 47.3743
vt 0.8487 0.3312 47.3743
vt 0.9000 0.3238 47.3743
vt 0.9513 0.3312 47.3743
vt -0.0487 0.3312 47.3743
vt -0.0264 0.4253 47.3743
vt 0.0000 0.3524 47.3743
vt 0.0736 0.5747 47.3743
vt 0.1264 0.5747 47.3743
vt 0.0500 0.5000 47.3743
vt 0.1000 0.5000 47.3743
vt 0.1500 0.5000 47.3743
vt 0.0264 0.4253 47.3743
vt 0.0754 0.4179 47.3743
vt 0.1246 0.4179 47.3743
vt 0.1736 0.4253 47.3743
vt 0.0487 0.3312 47.3743
vt 0.1000 0.3238 47.3743
vt 0.1513 0.3312 47.3743
vt 0.2000 0.3524 47.3743
vt 0.2736 0.5747 47.3743
vt 0.3264 0.5747 47.3743
vt 0.2500 0.5000 47.3743
vt 0.3000 0.5000 47.3743
vt 0.3500 0.5000 47.3743
vt 0.2264 0.4253 47.3743
vt 0.2754 0.4179 47.3743
vt 0.3246 0.4179 47.3743
vt 0.3736 0.4253 47.3743
vt 0.2487 0.3312 47.3743
vt 0.3000 0.3238 47.3743
vt 0.3513 0.3312 47.3743
vt 0.6000 0.5000 47.3743
vt 0.6246 0.5821 47.3743
vt 0.5754 0.5821 47.3743
vt 0.8000 0.5000 47.3743
vt 0.8246 0.5821 47.3743
vt 0.7754 0.5821 47.3743
vt 0.0000 0.5000 47.3743
vt -0.0500 0.5000 47.3743
vt 0.0246 0.5821 47.3743
vt -0.0246 0.5821 47.3743
vt 0.9754 0.5821 47.3743
vt 0.2000 0.5000 47.3743
vt 0.2246 0.5821 47.3743
vt 0.1754 0.5821 47.3743
vt 0.4000 0.5000 47.3743
vt 0.4246 0.5821 47.3743
vt 0.3754 0.5821 47.3743
vt 0.8000 0.0881 47.3743
vt 0.7000 0.0001 47.3743
vt 0.6000 0.0881 47.3743
vt 0.8000 0.1762 47.3743
vt 0.7000 0.1476 47.3743
vt 0.6000 0.1762 47.3743
vt 0.8000 0.2643 47.3743
vt 0.7356 0.2346 47.3743
vt 0.6644 0.2346 47.3743
vt 0.6000 0.2643 47.3743
vt 0.0000 0.0881 47.3743
vt -0.1000 0.0001 47.3743
vt -0.2000 0.0881 47.3743
vt 0.0000 0.1762 47.3743
vt -0.1000 0.1476 47.3743
vt 0.9000 0.1476 47.3743
vt 0.0000 0.2643 47.3743
vt -0.0644 0.2346 47.3743
vt 0.9356 0.2346 47.3743
vt 0.8644 0.2346 47.3743
vt 0.2000 0.0881 47.3743
vt 0.1000 0.0001 47.3743
vt 0.2000 0.1762 47.3743
vt 0.1000 0.1476 47.3743
vt 0.2000 0.2643 47.3743
vt 0.1356 0.2346 47.3743
vt 0.0644 0.2346 47.3743
vt 0.4000 0.0881 47.3743
vt 0.3000 0.0001 47.3743
vt 0.4000 0.1762 47.3743
vt 0.3000 0.1476 47.3743
vt 0.4000 0.2643 47.3743
vt 0.3356 0.2346 47.3743
vt 0.2644 0.2346 47.3743
vt 0.5000 0.0001 47.3743
vt 0.5000 0.1476 47.3743
vt 0.5356 0.2346 47.3743
vt 0.4644 0.2346 47.3743
# 181 texture coords

g GeoSphere001
usemtl wire_138008110
s 1
f 1/1/1 2/2/2 3/3/3 
f 4/4/4 1/1/1 5/5/5 
f 5/5/5 1/1/1 3/3/3 
f 5/5/5 3/3/3 6/6/6 
f 7/7/7 4/4/4 8/8/8 
f 8/8/8 4/4/4 5/5/5 
f 8/8/8 5/5/5 9/9/9 
f 9/9/9 5/5/5 6/6/6 
f 9/9/9 6/6/6 10/10/10 
f 11/11/11 7/7/7 12/12/12 
f 12/12/12 7/7/7 8/8/8 
f 12/12/12 8/8/8 13/13/13 
f 13/13/13 8/8/8 9/9/9 
f 13/13/13 9/9/9 14/14/14 
f 14/14/14 9/9/9 10/10/10 
f 14/14/14 10/10/10 15/15/15 
f 3/3/3 2/16/2 16/17/16 
f 6/6/6 3/3/3 17/18/17 
f 17/18/17 3/3/3 16/17/16 
f 17/18/17 16/17/16 18/19/18 
f 10/10/10 6/6/6 19/20/19 
f 19/20/19 6/6/6 17/18/17 
f 19/20/19 17/18/17 20/21/20 
f 20/21/20 17/18/17 18/19/18 
f 20/21/20 18/19/18 21/22/21 
f 15/15/15 10/10/10 22/23/22 
f 22/23/22 10/10/10 19/20/19 
f 22/23/22 19/20/19 23/24/23 
f 23/24/23 19/20/19 20/21/20 
f 23/24/23 20/21/20 24/25/24 
f 24/25/24 20/21/20 21/22/21 
f 24/25/24 21/22/21 25/26/25 
f 16/27/16 2/28/2 26/29/26 
f 18/30/18 16/27/16 27/31/27 
f 27/31/27 16/27/16 26/29/26 
f 27/31/27 26/29/26 28/32/28 
f 21/22/21 18/19/18 29/33/29 
f 29/34/29 18/30/18 27/31/27 
f 29/34/29 27/31/27 30/35/30 
f 30/35/30 27/31/27 28/32/28 
f 30/35/30 28/32/28 31/36/31 
f 25/26/25 21/22/21 32/37/32 
f 32/37/32 21/22/21 29/33/29 
f 32/38/32 29/34/29 33/39/33 
f 33/39/33 29/34/29 30/35/30 
f 33/39/33 30/35/30 34/40/34 
f 34/40/34 30/35/30 31/36/31 
f 34/40/34 31/36/31 35/41/35 
f 26/29/26 2/42/2 36/43/36 
f 28/32/28 26/29/26 37/44/37 
f 37/44/37 26/29/26 36/43/36 
f 37/44/37 36/43/36 38/45/38 
f 31/36/31 28/32/28 39/46/39 
f 39/46/39 28/32/28 37/44/37 
f 39/46/39 37/44/37 40/47/40 
f 40/47/40 37/44/37 38/45/38 
f 40/47/40 38/45/38 41/48/41 
f 35/41/35 31/36/31 42/49/42 
f 42/49/42 31/36/31 39/46/39 
f 42/49/42 39/46/39 43/50/43 
f 43/50/43 39/46/39 40/47/40 
f 43/50/43 40/47/40 44/51/44 
f 44/51/44 40/47/40 41/48/41 
f 44/51/44 41/48/41 45/52/45 
f 36/43/36 2/53/2 1/1/1 
f 38/45/38 36/43/36 46/54/46 
f 46/54/46 36/43/36 1/1/1 
f 46/54/46 1/1/1 4/4/4 
f 41/48/41 38/45/38 47/55/47 
f 47/55/47 38/45/38 46/54/46 
f 47/55/47 46/54/46 48/56/48 
f 48/56/48 46/54/46 4/4/4 
f 48/56/48 4/4/4 7/7/7 
f 45/52/45 41/48/41 49/57/49 
f 49/57/49 41/48/41 47/55/47 
f 49/57/49 47/55/47 50/58/50 
f 50/58/50 47/55/47 48/56/48 
f 50/58/50 48/56/48 51/59/51 
f 51/59/51 48/56/48 7/7/7 
f 51/59/51 7/7/7 11/11/11 
f 52/60/52 11/11/11 53/61/53 
f 54/62/54 52/60/52 55/63/55 
f 55/63/55 52/60/52 53/61/53 
f 55/63/55 53/61/53 56/64/56 
f 57/65/57 54/62/54 58/66/58 
f 58/66/58 54/62/54 55/63/55 
f 58/66/58 55/63/55 59/67/59 
f 59/67/59 55/63/55 56/64/56 
f 59/67/59 56/64/56 60/68/60 
f 61/69/61 57/65/57 62/70/62 
f 62/70/62 57/65/57 58/66/58 
f 62/70/62 58/66/58 63/71/63 
f 63/71/63 58/66/58 59/67/59 
f 63/71/63 59/67/59 64/72/64 
f 64/72/64 59/67/59 60/68/60 
f 64/72/64 60/68/60 65/73/65 
f 66/74/66 15/15/15 67/75/67 
f 68/76/68 66/74/66 69/77/69 
f 69/77/69 66/74/66 67/75/67 
f 69/77/69 67/75/67 70/78/70 
f 71/79/71 68/76/68 72/80/72 
f 72/80/72 68/76/68 69/77/69 
f 72/80/72 69/77/69 73/81/73 
f 73/81/73 69/77/69 70/78/70 
f 73/81/73 70/78/70 74/82/74 
f 65/73/65 71/79/71 75/83/75 
f 75/83/75 71/79/71 72/80/72 
f 75/83/75 72/80/72 76/84/76 
f 76/84/76 72/80/72 73/81/73 
f 76/84/76 73/81/73 77/85/77 
f 77/85/77 73/81/73 74/82/74 
f 77/85/77 74/82/74 78/86/78 
f 79/87/79 25/26/25 80/88/80 
f 81/89/81 79/87/79 82/90/82 
f 82/90/82 79/87/79 80/88/80 
f 82/90/82 80/88/80 83/91/83 
f 84/92/84 81/89/81 85/93/85 
f 85/93/85 81/89/81 82/90/82 
f 85/93/85 82/90/82 86/94/86 
f 86/94/86 82/90/82 83/91/83 
f 86/94/86 83/91/83 87/95/87 
f 78/86/78 84/92/84 88/96/88 
f 88/96/88 84/92/84 85/93/85 
f 88/96/88 85/93/85 89/97/89 
f 89/97/89 85/93/85 86/94/86 
f 89/97/89 86/94/86 90/98/90 
f 90/98/90 86/94/86 87/95/87 
f 90/99/90 87/100/87 91/101/91 
f 92/102/92 35/41/35 93/103/93 
f 94/104/94 92/102/92 95/105/95 
f 95/105/95 92/102/92 93/103/93 
f 95/105/95 93/103/93 96/106/96 
f 97/107/97 94/104/94 98/108/98 
f 98/108/98 94/104/94 95/105/95 
f 98/108/98 95/105/95 99/109/99 
f 99/109/99 95/105/95 96/106/96 
f 99/109/99 96/106/96 100/110/100 
f 91/101/91 97/107/97 101/111/101 
f 101/111/101 97/107/97 98/108/98 
f 101/111/101 98/108/98 102/112/102 
f 102/112/102 98/108/98 99/109/99 
f 102/112/102 99/109/99 103/113/103 
f 103/113/103 99/109/99 100/110/100 
f 103/113/103 100/110/100 104/114/104 
f 105/115/105 45/52/45 106/116/106 
f 107/117/107 105/115/105 108/118/108 
f 108/118/108 105/115/105 106/116/106 
f 108/118/108 106/116/106 109/119/109 
f 110/120/110 107/117/107 111/121/111 
f 111/121/111 107/117/107 108/118/108 
f 111/121/111 108/118/108 112/122/112 
f 112/122/112 108/118/108 109/119/109 
f 112/122/112 109/119/109 113/123/113 
f 104/114/104 110/120/110 114/124/114 
f 114/124/114 110/120/110 111/121/111 
f 114/124/114 111/121/111 115/125/115 
f 115/125/115 111/121/111 112/122/112 
f 115/125/115 112/122/112 116/126/116 
f 116/126/116 112/122/112 113/123/113 
f 116/126/116 113/123/113 61/69/61 
f 71/79/71 65/73/65 60/68/60 
f 68/76/68 71/79/71 117/127/117 
f 117/127/117 71/79/71 60/68/60 
f 117/127/117 60/68/60 56/64/56 
f 66/74/66 68/76/68 118/128/118 
f 118/128/118 68/76/68 117/127/117 
f 118/128/118 117/127/117 119/129/119 
f 119/129/119 117/127/117 56/64/56 
f 119/129/119 56/64/56 53/61/53 
f 15/15/15 66/74/66 14/14/14 
f 14/14/14 66/74/66 118/128/118 
f 14/14/14 118/128/118 13/13/13 
f 13/13/13 118/128/118 119/129/119 
f 13/13/13 119/129/119 12/12/12 
f 12/12/12 119/129/119 53/61/53 
f 12/12/12 53/61/53 11/11/11 
f 84/92/84 78/86/78 74/82/74 
f 81/89/81 84/92/84 120/130/120 
f 120/130/120 84/92/84 74/82/74 
f 120/130/120 74/82/74 70/78/70 
f 79/87/79 81/89/81 121/131/121 
f 121/131/121 81/89/81 120/130/120 
f 121/131/121 120/130/120 122/132/122 
f 122/132/122 120/130/120 70/78/70 
f 122/132/122 70/78/70 67/75/67 
f 25/26/25 79/87/79 24/25/24 
f 24/25/24 79/87/79 121/131/121 
f 24/25/24 121/131/121 23/24/23 
f 23/24/23 121/131/121 122/132/122 
f 23/24/23 122/132/122 22/23/22 
f 22/23/22 122/132/122 67/75/67 
f 22/23/22 67/75/67 15/15/15 
f 97/107/97 91/101/91 87/100/87 
f 94/104/94 97/107/97 123/133/123 
f 123/133/123 97/107/97 87/100/87 
f 123/133/123 87/100/87 83/134/83 
f 92/102/92 94/104/94 124/135/124 
f 124/135/124 94/104/94 123/133/123 
f 124/135/124 123/133/123 125/136/125 
f 125/136/125 123/133/123 83/134/83 
f 125/137/125 83/91/83 80/88/80 
f 35/41/35 92/102/92 34/40/34 
f 34/40/34 92/102/92 124/135/124 
f 34/40/34 124/135/124 33/39/33 
f 33/39/33 124/135/124 125/136/125 
f 33/39/33 125/136/125 32/38/32 
f 32/37/32 125/137/125 80/88/80 
f 32/37/32 80/88/80 25/26/25 
f 110/120/110 104/114/104 100/110/100 
f 107/117/107 110/120/110 126/138/126 
f 126/138/126 110/120/110 100/110/100 
f 126/138/126 100/110/100 96/106/96 
f 105/115/105 107/117/107 127/139/127 
f 127/139/127 107/117/107 126/138/126 
f 127/139/127 126/138/126 128/140/128 
f 128/140/128 126/138/126 96/106/96 
f 128/140/128 96/106/96 93/103/93 
f 45/52/45 105/115/105 44/51/44 
f 44/51/44 105/115/105 127/139/127 
f 44/51/44 127/139/127 43/50/43 
f 43/50/43 127/139/127 128/140/128 
f 43/50/43 128/140/128 42/49/42 
f 42/49/42 128/140/128 93/103/93 
f 42/49/42 93/103/93 35/41/35 
f 57/65/57 61/69/61 113/123/113 
f 54/62/54 57/65/57 129/141/129 
f 129/141/129 57/65/57 113/123/113 
f 129/141/129 113/123/113 109/119/109 
f 52/60/52 54/62/54 130/142/130 
f 130/142/130 54/62/54 129/141/129 
f 130/142/130 129/141/129 131/143/131 
f 131/143/131 129/141/129 109/119/109 
f 131/143/131 109/119/109 106/116/106 
f 11/11/11 52/60/52 51/59/51 
f 51/59/51 52/60/52 130/142/130 
f 51/59/51 130/142/130 50/58/50 
f 50/58/50 130/142/130 131/143/131 
f 50/58/50 131/143/131 49/57/49 
f 49/57/49 131/143/131 106/116/106 
f 49/57/49 106/116/106 45/52/45 
f 132/144/132 133/145/133 134/146/134 
f 135/147/135 132/144/132 136/148/136 
f 136/148/136 132/144/132 134/146/134 
f 136/148/136 134/146/134 137/149/137 
f 138/150/138 135/147/135 139/151/139 
f 139/151/139 135/147/135 136/148/136 
f 139/151/139 136/148/136 140/152/140 
f 140/152/140 136/148/136 137/149/137 
f 140/152/140 137/149/137 141/153/141 
f 78/86/78 138/150/138 77/85/77 
f 77/85/77 138/150/138 139/151/139 
f 77/85/77 139/151/139 76/84/76 
f 76/84/76 139/151/139 140/152/140 
f 76/84/76 140/152/140 75/83/75 
f 75/83/75 140/152/140 141/153/141 
f 75/83/75 141/153/141 65/73/65 
f 142/154/142 133/155/133 132/156/132 
f 143/157/143 142/154/142 144/158/144 
f 144/158/144 142/154/142 132/156/132 
f 144/159/144 132/144/132 135/147/135 
f 145/160/145 143/157/143 146/161/146 
f 146/161/146 143/157/143 144/158/144 
f 146/162/146 144/159/144 147/163/147 
f 147/163/147 144/159/144 135/147/135 
f 147/163/147 135/147/135 138/150/138 
f 91/101/91 145/160/145 90/99/90 
f 90/99/90 145/160/145 146/161/146 
f 90/98/90 146/162/146 89/97/89 
f 89/97/89 146/162/146 147/163/147 
f 89/97/89 147/163/147 88/96/88 
f 88/96/88 147/163/147 138/150/138 
f 88/96/88 138/150/138 78/86/78 
f 148/164/148 133/165/133 142/154/142 
f 149/166/149 148/164/148 150/167/150 
f 150/167/150 148/164/148 142/154/142 
f 150/167/150 142/154/142 143/157/143 
f 151/168/151 149/166/149 152/169/152 
f 152/169/152 149/166/149 150/167/150 
f 152/169/152 150/167/150 153/170/153 
f 153/170/153 150/167/150 143/157/143 
f 153/170/153 143/157/143 145/160/145 
f 104/114/104 151/168/151 103/113/103 
f 103/113/103 151/168/151 152/169/152 
f 103/113/103 152/169/152 102/112/102 
f 102/112/102 152/169/152 153/170/153 
f 102/112/102 153/170/153 101/111/101 
f 101/111/101 153/170/153 145/160/145 
f 101/111/101 145/160/145 91/101/91 
f 154/171/154 133/172/133 148/164/148 
f 155/173/155 154/171/154 156/174/156 
f 156/174/156 154/171/154 148/164/148 
f 156/174/156 148/164/148 149/166/149 
f 157/175/157 155/173/155 158/176/158 
f 158/176/158 155/173/155 156/174/156 
f 158/176/158 156/174/156 159/177/159 
f 159/177/159 156/174/156 149/166/149 
f 159/177/159 149/166/149 151/168/151 
f 61/69/61 157/175/157 116/126/116 
f 116/126/116 157/175/157 158/176/158 
f 116/126/116 158/176/158 115/125/115 
f 115/125/115 158/176/158 159/177/159 
f 115/125/115 159/177/159 114/124/114 
f 114/124/114 159/177/159 151/168/151 
f 114/124/114 151/168/151 104/114/104 
f 134/146/134 133/178/133 154/171/154 
f 137/149/137 134/146/134 160/179/160 
f 160/179/160 134/146/134 154/171/154 
f 160/179/160 154/171/154 155/173/155 
f 141/153/141 137/149/137 161/180/161 
f 161/180/161 137/149/137 160/179/160 
f 161/180/161 160/179/160 162/181/162 
f 162/181/162 160/179/160 155/173/155 
f 162/181/162 155/173/155 157/175/157 
f 65/73/65 141/153/141 64/72/64 
f 64/72/64 141/153/141 161/180/161 
f 64/72/64 161/180/161 63/71/63 
f 63/71/63 161/180/161 162/181/162 
f 63/71/63 162/181/162 62/70/62 
f 62/70/62 162/181/162 157/175/157 
f 62/70/62 157/175/157 61/69/61 
# 320 faces

